<?xml version="1.0" encoding="UTF-8" standalone="no"?>
<!DOCTYPE svg PUBLIC "-//W3C//DTD SVG 1.1//EN"
 "http://www.w3.org/Graphics/SVG/1.1/DTD/svg11.dtd">
<!-- Generated by graphviz version 2.48.0 (20210717.1556)
 -->
<!-- Pages: 1 -->
<svg width="260pt" height="740pt"
     viewBox="0.00 0.00 259.54 740.00" xmlns="http://www.w3.org/2000/svg">
<g id="graph0" class="graph" transform="scale(1 1) rotate(0) translate(4 736)">
<polygon fill="white" stroke="transparent" points="-4,4 -4,-736 255.54,-736 255.54,4 -4,4"/>
<!-- sower -->
<g id="node1" class="node">
<title>sower</title>
<ellipse fill="none" stroke="black" cx="134.54" cy="-714" rx="32.49" ry="18"/>
<text text-anchor="middle" x="134.54" y="-710.3" font-family="Times New Roman,serif" font-size="14.00">sower</text>
</g>
<!-- rack1 -->
<g id="node2" class="node">
<title>rack1</title>
<ellipse fill="none" stroke="black" cx="56.54" cy="-627" rx="30.59" ry="18"/>
<text text-anchor="middle" x="56.54" y="-623.3" font-family="Times New Roman,serif" font-size="14.00">rack1</text>
</g>
<!-- sower&#45;&gt;rack1 -->
<g id="edge1" class="edge">
<title>sower&#45;&gt;rack1</title>
<path fill="none" stroke="black" d="M104.55,-706.49C88.81,-701.44 70.72,-692.73 60.54,-678 56,-671.42 54.2,-663.14 53.76,-655.21"/>
<polygon fill="black" stroke="black" points="57.26,-655.2 53.85,-645.17 50.26,-655.14 57.26,-655.2"/>
<text text-anchor="middle" x="129.04" y="-666.8" font-family="Times New Roman,serif" font-size="14.00">sower_to_1_rack_move</text>
</g>
<!-- rack2 -->
<g id="node3" class="node">
<title>rack2</title>
<ellipse fill="none" stroke="black" cx="54.54" cy="-540" rx="30.59" ry="18"/>
<text text-anchor="middle" x="54.54" y="-536.3" font-family="Times New Roman,serif" font-size="14.00">rack2</text>
</g>
<!-- rack1&#45;&gt;rack2 -->
<g id="edge2" class="edge">
<title>rack1&#45;&gt;rack2</title>
<path fill="none" stroke="black" d="M56.03,-608.91C55.86,-603.21 55.69,-596.83 55.54,-591 55.37,-583.65 55.2,-575.7 55.05,-568.34"/>
<polygon fill="black" stroke="black" points="58.54,-568.06 54.85,-558.13 51.54,-568.19 58.54,-568.06"/>
<text text-anchor="middle" x="126.54" y="-579.8" font-family="Times New Roman,serif" font-size="14.00">1_rack_to_2_rack_move</text>
</g>
<!-- rack3 -->
<g id="node4" class="node">
<title>rack3</title>
<ellipse fill="none" stroke="black" cx="63.54" cy="-453" rx="30.59" ry="18"/>
<text text-anchor="middle" x="63.54" y="-449.3" font-family="Times New Roman,serif" font-size="14.00">rack3</text>
</g>
<!-- rack2&#45;&gt;rack3 -->
<g id="edge3" class="edge">
<title>rack2&#45;&gt;rack3</title>
<path fill="none" stroke="black" d="M54.02,-521.81C53.95,-512.14 54.21,-499.86 55.54,-489 55.87,-486.31 56.32,-483.52 56.84,-480.75"/>
<polygon fill="black" stroke="black" points="60.27,-481.48 58.93,-470.97 53.42,-480.01 60.27,-481.48"/>
<text text-anchor="middle" x="126.54" y="-492.8" font-family="Times New Roman,serif" font-size="14.00">2_rack_to_3_rack_move</text>
</g>
<!-- transplanter_3_4 -->
<g id="node5" class="node">
<title>transplanter_3_4</title>
<ellipse fill="none" stroke="black" cx="69.54" cy="-366" rx="69.59" ry="18"/>
<text text-anchor="middle" x="69.54" y="-362.3" font-family="Times New Roman,serif" font-size="14.00">tansplantor_3_4</text>
</g>
<!-- rack3&#45;&gt;transplanter_3_4 -->
<g id="edge4" class="edge">
<title>rack3&#45;&gt;transplanter_3_4</title>
<path fill="none" stroke="black" d="M64.76,-434.8C65.58,-423.16 66.68,-407.55 67.62,-394.24"/>
<polygon fill="black" stroke="black" points="71.12,-394.4 68.33,-384.18 64.14,-393.9 71.12,-394.4"/>
<text text-anchor="middle" x="129.54" y="-405.8" font-family="Times New Roman,serif" font-size="14.00">3_rack_to_3_4_move</text>
</g>
<!-- in_buffer_3 -->
<g id="node6" class="node">
<title>in_buffer_3</title>
<ellipse fill="none" stroke="black" cx="73.54" cy="-279" rx="53.09" ry="18"/>
<text text-anchor="middle" x="73.54" y="-275.3" font-family="Times New Roman,serif" font-size="14.00">in_buffer_3</text>
</g>
<!-- tansplantor_3_4&#45;&gt;in_buffer_3 -->
<g id="edge5" class="edge">
<title>tansplantor_3_4&#45;&gt;in_buffer_3</title>
<path fill="none" stroke="black" d="M70.35,-347.8C70.9,-336.16 71.64,-320.55 72.26,-307.24"/>
<polygon fill="black" stroke="black" points="75.76,-307.33 72.74,-297.18 68.77,-307 75.76,-307.33"/>
<text text-anchor="middle" x="105.54" y="-318.8" font-family="Times New Roman,serif" font-size="14.00">3_in_buffer</text>
</g>
<!-- washer -->
<g id="node7" class="node">
<title>washer</title>
<ellipse fill="none" stroke="black" cx="91.54" cy="-192" rx="36.29" ry="18"/>
<text text-anchor="middle" x="91.54" y="-188.3" font-family="Times New Roman,serif" font-size="14.00">washer</text>
</g>
<!-- in_buffer_3&#45;&gt;washer -->
<g id="edge6" class="edge">
<title>in_buffer_3&#45;&gt;washer</title>
<path fill="none" stroke="black" d="M77.19,-260.8C79.65,-249.16 82.96,-233.55 85.78,-220.24"/>
<polygon fill="black" stroke="black" points="89.26,-220.68 87.91,-210.18 82.41,-219.23 89.26,-220.68"/>
<text text-anchor="middle" x="120.54" y="-231.8" font-family="Times New Roman,serif" font-size="14.00">wash_tray_3</text>
</g>
<!-- tray_lifter -->
<g id="node8" class="node">
<title>tray_lifter</title>
<ellipse fill="none" stroke="black" cx="105.54" cy="-105" rx="45.49" ry="18"/>
<text text-anchor="middle" x="105.54" y="-101.3" font-family="Times New Roman,serif" font-size="14.00">tray_lifter</text>
</g>
<!-- washer&#45;&gt;tray_lifter -->
<g id="edge7" class="edge">
<title>washer&#45;&gt;tray_lifter</title>
<path fill="none" stroke="black" d="M93.15,-173.81C94.17,-164.14 95.66,-151.85 97.54,-141 98.01,-138.33 98.55,-135.55 99.12,-132.79"/>
<polygon fill="black" stroke="black" points="102.54,-133.54 101.28,-123.02 95.7,-132.03 102.54,-133.54"/>
<text text-anchor="middle" x="147.54" y="-144.8" font-family="Times New Roman,serif" font-size="14.00">washer_to_sower</text>
</g>
<!-- foam_inserter -->
<g id="node9" class="node">
<title>foam_inserter</title>
<ellipse fill="none" stroke="black" cx="158.54" cy="-18" rx="60.39" ry="18"/>
<text text-anchor="middle" x="158.54" y="-14.3" font-family="Times New Roman,serif" font-size="14.00">foam_inserter</text>
</g>
<!-- tray_lifter&#45;&gt;foam_inserter -->
<g id="edge8" class="edge">
<title>tray_lifter&#45;&gt;foam_inserter</title>
<path fill="none" stroke="black" d="M108.33,-86.84C110.53,-76.73 114.3,-63.99 120.54,-54 123.14,-49.85 126.36,-45.87 129.82,-42.19"/>
<polygon fill="black" stroke="black" points="132.4,-44.56 137.13,-35.07 127.52,-39.54 132.4,-44.56"/>
<text text-anchor="middle" x="159.04" y="-57.8" font-family="Times New Roman,serif" font-size="14.00">foam_inserter</text>
</g>
<!-- foam_inserter&#45;&gt;sower -->
<g id="edge9" class="edge">
<title>foam_inserter&#45;&gt;sower</title>
<path fill="none" stroke="black" d="M180.61,-34.94C186.85,-40.37 193.12,-46.89 197.54,-54 209.73,-73.6 211.54,-80.92 211.54,-104 211.54,-628 211.54,-628 211.54,-628 211.54,-651.08 211.84,-659.89 197.54,-678 190.48,-686.95 180.46,-693.96 170.49,-699.28"/>
<polygon fill="black" stroke="black" points="168.89,-696.17 161.43,-703.7 171.96,-702.46 168.89,-696.17"/>
<text text-anchor="middle" x="231.54" y="-362.3" font-family="Times New Roman,serif" font-size="14.00">sowing</text>
</g>
</g>
</svg>
